# Blender v3.0.0 OBJ File: 'test.blend'
# www.blender.org
mtllib test.mtl
o Plane
v -0.740206 -0.011405 -0.000000
v 0.740206 -0.011405 -0.000000
v -0.740206 1.469008 0.000000
v 0.740206 1.469008 0.000000
vt 0.128072 0.874988
vt 0.182909 0.874988
vt 0.182909 0.934609
vt 0.128072 0.934609
vn 0.0000 -0.0000 1.0000
usemtl Material.001
s off
f 1/1/1 2/2/1 4/3/1 3/4/1
o Plane.001
v -0.000000 -0.011405 0.740206
v -0.000000 -0.011405 -0.740206
v 0.000000 1.469008 0.740206
v 0.000000 1.469008 -0.740206
vt 0.128072 0.874988
vt 0.182909 0.874988
vt 0.182909 0.934609
vt 0.128072 0.934609
vn 1.0000 -0.0000 -0.0000
usemtl Material.002
s off
f 5/5/2 6/6/2 8/7/2 7/8/2
